<svg width="25" height="24" viewBox="0 0 25 24" fill="none" xmlns="http://www.w3.org/2000/svg">
<path d="M14.51 4H9.51001L7.01001 7H4.01001C3.47958 7 2.97087 7.21071 2.5958 7.58579C2.22072 7.96086 2.01001 8.46957 2.01001 9V18C2.01001 18.5304 2.22072 19.0391 2.5958 19.4142C2.97087 19.7893 3.47958 20 4.01001 20H20.01C20.5404 20 21.0492 19.7893 21.4242 19.4142C21.7993 19.0391 22.01 18.5304 22.01 18V9C22.01 8.46957 21.7993 7.96086 21.4242 7.58579C21.0492 7.21071 20.5404 7 20.01 7H17.01L14.51 4Z" stroke="#656565" stroke-width="1.5" stroke-linecap="round" stroke-linejoin="round"/>
<path d="M12.01 16C13.6669 16 15.01 14.6569 15.01 13C15.01 11.3431 13.6669 10 12.01 10C10.3532 10 9.01001 11.3431 9.01001 13C9.01001 14.6569 10.3532 16 12.01 16Z" stroke="#656565" stroke-width="1.5" stroke-linecap="round" stroke-linejoin="round"/>
</svg>
