<svg width="131" height="135" viewBox="0 0 131 135" fill="none" xmlns="http://www.w3.org/2000/svg">
<path d="M114.902 49.9255C117.229 49.9255 119.114 48.038 119.114 45.7098C119.114 43.3816 117.229 41.4941 114.902 41.4941C112.576 41.4941 110.691 43.3816 110.691 45.7098C110.691 48.038 112.576 49.9255 114.902 49.9255Z" fill="#EAEEF9"/>
<path d="M3.02098 72.7229C4.55135 72.7229 5.79196 71.4812 5.79196 69.9495C5.79196 68.4177 4.55135 67.176 3.02098 67.176C1.49061 67.176 0.25 68.4177 0.25 69.9495C0.25 71.4812 1.49061 72.7229 3.02098 72.7229Z" fill="#EAEEF9"/>
<path d="M15.7586 122.585C17.289 122.585 18.5296 121.343 18.5296 119.811C18.5296 118.279 17.289 117.038 15.7586 117.038C14.2283 117.038 12.9877 118.279 12.9877 119.811C12.9877 121.343 14.2283 122.585 15.7586 122.585Z" fill="#EAEEF9"/>
<path d="M30.5706 122.584L69.4551 110.4V60.4449L30.5706 72.5354V122.584Z" fill="#B7BFCD"/>
<path opacity="0.4" d="M108.34 122.584L69.4551 110.4V60.4449L108.34 72.5354V122.584Z" fill="#6D7C9A"/>
<g opacity="0.13">
<path d="M30.5706 122.584L69.4551 110.4V60.4449L30.5706 72.5354V122.584Z" fill="url(#paint0_linear_45_4981)"/>
<path d="M108.34 122.584L69.4551 110.4V60.4449L108.34 72.5354V122.584Z" fill="url(#paint1_linear_45_4981)"/>
</g>
<path d="M69.4551 134.862L30.5706 122.678V72.7229L69.4551 84.9071V134.862Z" fill="#EDF1F9"/>
<path d="M69.4551 134.862L108.34 122.678V72.7229L69.4551 84.9071V134.862Z" fill="#DAE1ED"/>
<path opacity="0.09" d="M60.645 126.052L30.5706 122.678V72.7229L69.4551 84.9071L60.645 126.052Z" fill="url(#paint2_linear_45_4981)"/>
<path opacity="0.2" d="M78.2653 117.242L108.34 122.678V72.7229L69.4551 84.9071L78.2653 117.242Z" fill="url(#paint3_linear_45_4981)"/>
<path d="M69.4551 60.4449L51.1729 46.7611L11.6387 60.07L30.5705 72.5354L69.4551 60.4449Z" fill="#DAE1ED"/>
<path d="M69.4551 60.4449L87.7374 46.7611L127.272 60.07L108.34 72.5354L69.4551 60.4449Z" fill="#DAE1ED"/>
<path d="M30.5705 72.7229L69.4551 84.9071L50.0592 97.2788L11.6387 84.5322L30.5705 72.7229Z" fill="#EFF4FD"/>
<path d="M108.34 72.7229L69.4551 84.9071L88.851 97.2788L127.272 84.5322L108.34 72.7229Z" fill="#EDF1F9"/>
<path d="M80.3042 12.4862C85.7517 27.2701 87.3754 30.555 87.9083 45.1224C87.7034 48.4476 87.5763 52.0635 86.0086 54.9751C83.915 59.4292 78.794 62.5138 73.9558 62.5637C68.9716 62.6528 64.0851 59.601 61.8858 54.8952C60.3383 52.0393 60.3876 48.1328 62.5101 45.5398C64.8177 43.053 68.8772 42.4329 71.7974 43.9868C75.0096 45.4624 76.927 48.5307 77.6371 51.7666C78.3473 55.0025 78.0353 58.5122 77.1684 61.7033C75.3554 69.4644 73.8539 69.8399 69.4077 82.9799" stroke="#ABB5CC" stroke-width="2.20253" stroke-miterlimit="10" stroke-dasharray="4.41 4.41"/>
<path d="M86.9342 4.66111C86.9216 6.83498 84.8986 8.16607 82.3331 7.47196C79.632 7.0115 77.7202 6.53694 77.5972 4.59674C77.6591 2.60697 79.8301 1.82821 82.3711 0.950342C85.4178 -0.260302 86.7618 2.53679 86.9342 4.66111Z" fill="#DAE2EB"/>
<path d="M69.4802 11.3088C70.8491 12.718 73.7352 13.1289 75.1416 10.9763C76.6838 8.59014 78.0038 6.85538 76.5856 5.26206C75.2167 3.85284 73.8844 4.8016 70.8377 6.01225C68.3953 7.25834 67.877 9.76498 69.4802 11.3088Z" fill="#DAE2EB"/>
<path d="M75.7966 2.31648C77.0425 1.78549 78.5349 2.17505 79.2008 3.1806C79.4844 3.49926 79.8174 4.00204 79.916 4.37026C80.9764 6.84869 80.643 9.30578 79.2121 9.88632C77.6456 10.7005 75.4873 9.30542 74.6612 6.96155C74.464 6.22511 74.3654 5.85689 74.2174 5.30456C74.0573 3.96624 74.5508 2.84747 75.7966 2.31648C75.9817 2.26693 75.7966 2.31648 75.7966 2.31648Z" fill="#989FB0"/>
<path d="M18.5296 42.2132H16.1178V39.8014H14.0505V42.2132H11.6387V44.3494H14.0505V46.7612H16.1178V44.3494H18.5296V42.2132Z" fill="url(#paint4_linear_45_4981)"/>
<path d="M23.8274 102.725H21.4156V100.313H19.3483V102.725H16.9365V104.861H19.3483V107.273H21.4156V104.861H23.8274V102.725Z" fill="url(#paint5_linear_45_4981)"/>
<path d="M129.26 102.861L126.309 101.371L127.799 98.4203L125.27 97.1433L123.78 100.094L120.829 98.6043L119.509 101.218L122.46 102.708L120.97 105.659L123.5 106.936L124.99 103.985L127.941 105.475L129.26 102.861Z" fill="url(#paint6_linear_45_4981)"/>
<defs>
<linearGradient id="paint0_linear_45_4981" x1="57.1802" y1="64.063" x2="51.8764" y2="86.1431" gradientUnits="userSpaceOnUse">
<stop offset="0.00289017" stop-color="#606673" stop-opacity="0"/>
<stop offset="1" stop-color="#373C47"/>
</linearGradient>
<linearGradient id="paint1_linear_45_4981" x1="57.1802" y1="64.063" x2="51.8764" y2="86.1431" gradientUnits="userSpaceOnUse">
<stop offset="0.00289017" stop-color="#606673" stop-opacity="0"/>
<stop offset="1" stop-color="#373C47"/>
</linearGradient>
<linearGradient id="paint2_linear_45_4981" x1="39.2883" y1="106.912" x2="48.6298" y2="80.5278" gradientUnits="userSpaceOnUse">
<stop offset="0.00289017" stop-color="#6C80AA" stop-opacity="0"/>
<stop offset="1" stop-color="#5D6A86"/>
</linearGradient>
<linearGradient id="paint3_linear_45_4981" x1="90.4406" y1="114.119" x2="91.1753" y2="80.6379" gradientUnits="userSpaceOnUse">
<stop offset="0.00289017" stop-color="#314F91" stop-opacity="0"/>
<stop offset="1" stop-color="#324264"/>
</linearGradient>
<linearGradient id="paint4_linear_45_4981" x1="15.0847" y1="40.0432" x2="15.0847" y2="43.9496" gradientUnits="userSpaceOnUse">
<stop stop-color="#B0BACC"/>
<stop offset="1" stop-color="#969EAE"/>
</linearGradient>
<linearGradient id="paint5_linear_45_4981" x1="20.3825" y1="100.555" x2="20.3825" y2="104.461" gradientUnits="userSpaceOnUse">
<stop stop-color="#B0BACC"/>
<stop offset="1" stop-color="#969EAE"/>
</linearGradient>
<linearGradient id="paint6_linear_45_4981" x1="126.386" y1="98.078" x2="123.973" y2="102.858" gradientUnits="userSpaceOnUse">
<stop stop-color="#B0BACC"/>
<stop offset="1" stop-color="#969EAE"/>
</linearGradient>
</defs>
</svg>
