<svg width="24" height="24" viewBox="0 0 24 24" fill="none" xmlns="http://www.w3.org/2000/svg">
<path d="M9 22V14C9 12.8954 9.89543 12 11 12H13C14.1046 12 15 12.8954 15 14V22M21 20V9.97817C21 9.36099 20.7151 8.77838 20.2279 8.39946L13.2279 2.95502C12.5057 2.39329 11.4943 2.39329 10.7721 2.95502L3.77212 8.39946C3.28495 8.77838 3 9.36099 3 9.97817V20C3 20.5304 3.21071 21.0391 3.58579 21.4142C3.96086 21.7893 4.46957 22 5 22H19C19.5304 22 20.0391 21.7893 20.4142 21.4142C20.7893 21.0391 21 20.5304 21 20Z" stroke="#373A38" stroke-width="1.5" stroke-linecap="round" stroke-linejoin="round"/>
</svg>
