<svg width="22" height="22" viewBox="0 0 22 22" fill="none" xmlns="http://www.w3.org/2000/svg">
<path d="M11 1.375C9.09635 1.375 7.23546 1.9395 5.65263 2.9971C4.06981 4.05471 2.83615 5.55793 2.10766 7.31667C1.37916 9.07541 1.18856 11.0107 1.55994 12.8777C1.93132 14.7448 2.84801 16.4598 4.19409 17.8059C5.54017 19.152 7.25519 20.0687 9.12225 20.4401C10.9893 20.8114 12.9246 20.6208 14.6833 19.8923C16.4421 19.1638 17.9453 17.9302 19.0029 16.3474C20.0605 14.7645 20.625 12.9036 20.625 11C20.6221 8.44818 19.6071 6.00172 17.8027 4.19731C15.9983 2.39291 13.5518 1.37791 11 1.375ZM11 19.25C9.3683 19.25 7.77325 18.7661 6.41654 17.8596C5.05984 16.9531 4.00241 15.6646 3.37799 14.1571C2.75357 12.6496 2.59019 10.9908 2.90852 9.3905C3.22685 7.79016 4.01258 6.32015 5.16637 5.16637C6.32015 4.01259 7.79016 3.22685 9.3905 2.90852C10.9908 2.59019 12.6496 2.75357 14.1571 3.37799C15.6646 4.00242 16.9531 5.05984 17.8596 6.41655C18.7661 7.77325 19.25 9.3683 19.25 11C19.2475 13.1873 18.3776 15.2843 16.8309 16.8309C15.2843 18.3776 13.1873 19.2475 11 19.25Z" fill="#646464"/>
<path d="M11.6875 7.5625H9.28125L9.28125 8.9375H10.3125L10.3125 15.125H9.28125L9.28125 16.5H12.7188L12.7188 15.125H11.6875L11.6875 7.5625Z" fill="#646464"/>
<path d="M11 6.53125C11.3797 6.53125 11.6875 6.22345 11.6875 5.84375C11.6875 5.46405 11.3797 5.15625 11 5.15625C10.6203 5.15625 10.3125 5.46405 10.3125 5.84375C10.3125 6.22345 10.6203 6.53125 11 6.53125Z" fill="#646464"/>
</svg>
