<svg width="25" height="24" viewBox="0 0 25 24" fill="none" xmlns="http://www.w3.org/2000/svg">
<path d="M5.06451 8L3.06451 6M9.06451 7V4M13.0645 8L15.0645 6M11.8945 13H20.0645C20.5949 13 21.1037 13.2107 21.4787 13.5858C21.8538 13.9609 22.0645 14.4696 22.0645 15V19C22.0645 19.5304 21.8538 20.0391 21.4787 20.4142C21.1037 20.7893 20.5949 21 20.0645 21H4.06451C3.53408 21 3.02537 20.7893 2.6503 20.4142C2.27523 20.0391 2.06451 19.5304 2.06451 19V15C2.06451 14.4696 2.27523 13.9609 2.6503 13.5858C3.02537 13.2107 3.53408 13 4.06451 13H6.23451M16.0645 17H18.0645M12.0645 14C12.0645 15.6569 10.7214 17 9.06451 17C7.40766 17 6.06451 15.6569 6.06451 14C6.06451 12.3431 7.40766 11 9.06451 11C10.7214 11 12.0645 12.3431 12.0645 14Z" stroke="#C0C0C0" stroke-linecap="round" stroke-linejoin="round"/>
</svg>
