<svg width="25" height="24" viewBox="0 0 25 24" fill="none" xmlns="http://www.w3.org/2000/svg">
<path d="M6.12903 16V16.01M6.12903 12V12.01M18.129 16V16.01M18.129 12V12.01M14.129 21V16C14.129 15.4696 13.9183 14.9609 13.5432 14.5858C13.1682 14.2107 12.6595 14 12.129 14C11.5986 14 11.0899 14.2107 10.7148 14.5858C10.3397 14.9609 10.129 15.4696 10.129 16V21M13.129 9C13.129 9.55228 12.6813 10 12.129 10C11.5767 10 11.129 9.55228 11.129 9C11.129 8.44772 11.5767 8 12.129 8C12.6813 8 13.129 8.44772 13.129 9ZM22.129 19V9C22.129 7.89543 21.2336 7 20.129 7H18.7346C18.3397 7 17.9537 6.88312 17.6252 6.6641L13.2384 3.7396C12.5666 3.29173 11.6914 3.29173 11.0196 3.7396L6.63288 6.6641C6.30434 6.88312 5.91833 7 5.52348 7H4.12903C3.02446 7 2.12903 7.89543 2.12903 9V19C2.12903 19.5304 2.33974 20.0391 2.71481 20.4142C3.08989 20.7893 3.5986 21 4.12903 21H20.129C20.6595 21 21.1682 20.7893 21.5432 20.4142C21.9183 20.0391 22.129 19.5304 22.129 19Z" stroke="#C0C0C0" stroke-linecap="round" stroke-linejoin="round"/>
</svg>
