<svg width="24" height="24" viewBox="0 0 24 24" fill="none" xmlns="http://www.w3.org/2000/svg">
<path d="M11.9688 10.132C11.9688 10.356 12.1487 10.532 12.3688 10.532C12.8248 10.532 13.1928 10.904 13.1928 11.356C13.1928 11.576 13.3728 11.756 13.5928 11.756C13.8128 11.756 13.9928 11.576 13.9928 11.356C13.9928 10.46 13.2648 9.73199 12.3688 9.73199C12.1487 9.73199 11.9688 9.91199 11.9688 10.132ZM18.4807 11.756C18.7047 11.756 18.8807 11.576 18.8807 11.356C18.8807 7.76399 15.9607 4.84399 12.3688 4.84399C12.1487 4.84399 11.9688 5.02399 11.9688 5.24399C11.9688 5.46399 12.1487 5.64399 12.3688 5.64399C15.5208 5.64399 18.0807 8.20799 18.0807 11.356C18.0807 11.576 18.2607 11.756 18.4807 11.756Z" fill="white"/>
<path d="M15.6374 11.3559C15.6374 11.5759 15.8174 11.7559 16.0374 11.7559C16.2574 11.7559 16.4374 11.5759 16.4374 11.3559C16.4374 9.1119 14.6134 7.2879 12.3694 7.2879C12.1494 7.2879 11.9694 7.4679 11.9694 7.6879C11.9694 7.9119 12.1494 8.0879 12.3694 8.0879C14.1734 8.0879 15.6374 9.5559 15.6374 11.3559ZM12.3694 2.3999C12.1494 2.3999 11.9694 2.5799 11.9694 2.7999C11.9694 3.0199 12.1494 3.1999 12.3694 3.1999C16.8694 3.1999 20.5294 6.8599 20.5294 11.3559C20.5294 11.5759 20.7054 11.7559 20.9294 11.7559C21.1494 11.7559 21.3294 11.5759 21.3294 11.3559C21.3294 6.4159 17.3094 2.3999 12.3694 2.3999ZM16.2774 15.5719L15.7534 15.8559C14.8694 16.3399 13.7494 16.1759 13.0334 15.4599L8.80941 11.2359C8.09341 10.5199 7.92941 9.3999 8.41341 8.5119L8.69741 7.9919C9.01741 7.3999 9.13341 6.7359 9.03741 6.0719C8.94673 5.40924 8.64027 4.79491 8.16541 4.3239C7.58141 3.7399 6.80541 3.4199 5.97741 3.4199C5.14941 3.4199 4.36941 3.7399 3.78541 4.3239L3.58141 4.5319C2.50141 5.6119 2.37741 7.4719 3.22941 9.7759C4.03341 11.9759 5.65341 14.3599 7.78141 16.4879C11.0254 19.7319 14.6374 21.5999 17.2294 21.5999C18.2534 21.5999 19.1214 21.3079 19.7374 20.6919L19.9454 20.4839C20.2335 20.1962 20.4619 19.8545 20.6177 19.4783C20.7735 19.1022 20.8536 18.699 20.8534 18.2919C20.8478 17.472 20.522 16.6868 19.9454 16.1039C18.9814 15.1399 17.4734 14.9239 16.2774 15.5719Z" fill="white"/>
</svg>
