<svg width="20" height="20" viewBox="0 0 20 20" fill="none" xmlns="http://www.w3.org/2000/svg">
<path d="M16.875 17.5C16.7929 17.5002 16.7116 17.4841 16.6358 17.4526C16.5599 17.4212 16.4911 17.375 16.4332 17.3168L2.68319 3.56683C2.57093 3.44867 2.50926 3.29133 2.51135 3.12835C2.51344 2.96538 2.57911 2.80966 2.69436 2.69441C2.80961 2.57916 2.96532 2.51349 3.1283 2.5114C3.29128 2.50932 3.44862 2.57098 3.56678 2.68324L17.3168 16.4332C17.4041 16.5206 17.4636 16.632 17.4877 16.7532C17.5118 16.8744 17.4994 17 17.4521 17.1142C17.4049 17.2283 17.3248 17.3259 17.2221 17.3946C17.1193 17.4633 16.9986 17.5 16.875 17.5ZM9.9867 15C8.366 15 6.80311 14.5204 5.34139 13.5743C4.01053 12.7149 2.81249 11.484 1.87655 10.0196L1.87655 10.0164C2.65545 8.90043 3.50858 7.95668 4.42499 7.19574C4.43328 7.18881 4.44004 7.18024 4.44484 7.17056C4.44965 7.16088 4.4524 7.15031 4.45291 7.13952C4.45343 7.12873 4.4517 7.11794 4.44783 7.10785C4.44397 7.09776 4.43805 7.08858 4.43045 7.0809L3.65233 6.30394C3.6385 6.29 3.61993 6.28178 3.60032 6.28091C3.5807 6.28004 3.56148 6.28659 3.54647 6.29926C2.57303 7.11957 1.66952 8.12582 0.848032 9.30394C0.706698 9.5068 0.62886 9.74709 0.624409 9.99428C0.619957 10.2415 0.689094 10.4844 0.823032 10.6922C1.85467 12.3067 3.18241 13.6664 4.6621 14.6239C6.32811 15.7032 8.12108 16.25 9.9867 16.25C10.9937 16.2469 11.9936 16.081 12.9476 15.7586C12.9602 15.7544 12.9715 15.747 12.9804 15.7371C12.9894 15.7273 12.9956 15.7153 12.9986 15.7024C13.0017 15.6894 13.0013 15.6759 12.9977 15.6631C12.994 15.6504 12.9871 15.6387 12.9777 15.6293L12.1348 14.7864C12.1153 14.7674 12.0913 14.7539 12.0651 14.747C12.0389 14.7402 12.0113 14.7403 11.9851 14.7473C11.3323 14.9154 10.6608 15.0003 9.9867 15ZM19.1734 9.32035C18.1398 7.72191 16.7988 6.3641 15.2957 5.3934C13.6328 4.3184 11.7969 3.75004 9.9867 3.75004C8.99036 3.75181 8.00143 3.92123 7.06131 4.25121C7.04879 4.25557 7.03758 4.26304 7.02874 4.27293C7.0199 4.28282 7.01373 4.2948 7.0108 4.30773C7.00786 4.32067 7.00828 4.33413 7.01199 4.34687C7.0157 4.3596 7.02259 4.37117 7.03202 4.38051L7.87381 5.2223C7.89341 5.24157 7.91774 5.25532 7.94435 5.26218C7.97096 5.26904 7.99891 5.26876 8.02538 5.26137C8.66482 5.08839 9.32428 5.00052 9.9867 5.00004C11.5762 5.00004 13.1344 5.48558 14.6176 6.44535C15.9734 7.32035 17.1855 8.55004 18.1238 10C18.1245 10.0009 18.1249 10.002 18.1249 10.0032C18.1249 10.0043 18.1245 10.0054 18.1238 10.0063C17.4427 11.0785 16.5975 12.0372 15.6191 12.8473C15.6107 12.8542 15.6039 12.8628 15.599 12.8725C15.5941 12.8822 15.5913 12.8928 15.5908 12.9036C15.5902 12.9145 15.5919 12.9253 15.5958 12.9355C15.5997 12.9456 15.6056 12.9548 15.6133 12.9625L16.3906 13.7395C16.4044 13.7534 16.4228 13.7616 16.4424 13.7625C16.4619 13.7635 16.4811 13.7571 16.4961 13.7446C17.5406 12.8651 18.4448 11.8313 19.1773 10.6789C19.3068 10.4759 19.3753 10.2399 19.3746 9.99908C19.3739 9.75824 19.3041 9.52267 19.1734 9.32035Z" fill="#9CA3AF"/>
<path d="M10 6.25C9.71911 6.24985 9.43909 6.2813 9.16523 6.34375C9.1514 6.34662 9.1386 6.35319 9.12821 6.36276C9.11781 6.37233 9.11021 6.38453 9.1062 6.39808C9.10219 6.41163 9.10193 6.42601 9.10545 6.43969C9.10897 6.45337 9.11613 6.46585 9.12617 6.47578L13.5242 10.8727C13.5342 10.8827 13.5466 10.8899 13.5603 10.8934C13.574 10.8969 13.5884 10.8966 13.6019 10.8926C13.6155 10.8886 13.6277 10.881 13.6372 10.8706C13.6468 10.8602 13.6534 10.8474 13.6562 10.8336C13.7815 10.2844 13.7813 9.71403 13.6559 9.16488C13.5305 8.61573 13.2829 8.1019 12.9316 7.66154C12.5804 7.22118 12.1344 6.86562 11.6269 6.62125C11.1194 6.37688 10.5633 6.24999 10 6.25ZM6.47578 9.12734C6.46584 9.1173 6.45337 9.11014 6.43969 9.10662C6.426 9.10311 6.41162 9.10337 6.39808 9.10738C6.38453 9.11138 6.37232 9.11899 6.36276 9.12938C6.35319 9.13978 6.34662 9.15257 6.34375 9.16641C6.20208 9.78529 6.21987 10.43 6.39544 11.0401C6.57102 11.6503 6.89862 12.2058 7.34756 12.6548C7.79649 13.1037 8.35206 13.4313 8.96219 13.6069C9.57233 13.7825 10.217 13.8003 10.8359 13.6586C10.8498 13.6557 10.8626 13.6492 10.873 13.6396C10.8834 13.63 10.891 13.6178 10.895 13.6043C10.899 13.5907 10.8992 13.5763 10.8957 13.5627C10.8922 13.549 10.885 13.5365 10.875 13.5266L6.47578 9.12734Z" fill="#9CA3AF"/>
</svg>
