<svg width="259" height="172" viewBox="0 0 259 172" fill="none" xmlns="http://www.w3.org/2000/svg">
<g clip-path="url(#clip0_66_738)">
<path d="M92.9037 98.9876C101.78 83.385 118.711 71.4047 136.634 72.5588C123.413 86.9252 115.704 105.502 114.87 125.001C114.576 132.522 115.032 140.918 110.035 146.55C106.925 150.055 102.172 151.752 97.4991 152.108C92.8257 152.464 88.1534 151.62 83.5424 150.78L82.4239 151.123C81.9981 133.181 84.0277 114.59 92.9037 98.9876Z" fill="#F0F0F0"/>
<path d="M136.661 72.9346C123.407 79.3104 112.106 89.9587 105.168 102.945C103.668 105.753 102.391 108.731 101.834 111.881C101.277 115.031 101.666 118.031 102.743 121.023C103.728 123.759 105.052 126.443 105.354 129.37C105.672 132.456 104.536 135.341 102.491 137.631C99.9887 140.432 96.6285 142.168 93.2834 143.752C89.5693 145.51 85.6836 147.277 83.053 150.559C82.7343 150.956 82.1355 150.439 82.4538 150.042C87.0306 144.333 94.865 143.259 100.298 138.66C102.833 136.514 104.736 133.592 104.616 130.168C104.511 127.173 103.148 124.404 102.127 121.643C101.055 118.743 100.521 115.828 100.905 112.736C101.298 109.574 102.461 106.539 103.883 103.706C107.089 97.3153 111.476 91.4483 116.502 86.3766C122.278 80.5469 129.009 75.7475 136.405 72.186C136.862 71.9658 137.116 72.7158 136.661 72.9346Z" fill="white"/>
<path d="M107.2 98.6049C105.168 97.1203 103.73 94.9623 103.144 92.5163C102.557 90.0703 102.86 87.4956 103.998 85.2519C104.229 84.7987 104.945 85.1373 104.713 85.5911C103.65 87.6785 103.368 90.0769 103.919 92.3535C104.47 94.6301 105.817 96.6349 107.717 98.0062C108.13 98.3046 107.61 98.9017 107.2 98.6049Z" fill="white"/>
<path d="M102.061 119.701C107.152 118.958 111.776 116.324 115.011 112.326C115.331 111.929 115.93 112.446 115.61 112.842C112.236 116.997 107.419 119.728 102.119 120.49C101.614 120.563 101.559 119.773 102.061 119.701Z" fill="white"/>
<path d="M122.667 81.5201C123.333 82.2582 124.173 82.8194 125.11 83.1533C126.047 83.4871 127.052 83.5831 128.035 83.4327C128.54 83.3541 128.594 84.1435 128.093 84.2216C127.006 84.3827 125.896 84.2753 124.86 83.9088C123.824 83.5422 122.893 82.9277 122.15 82.1189C122.073 82.0485 122.026 81.9517 122.019 81.8481C122.011 81.7445 122.043 81.6418 122.109 81.5611C122.177 81.4821 122.275 81.4335 122.379 81.4259C122.484 81.4182 122.587 81.4521 122.667 81.5201Z" fill="white"/>
<path d="M172.295 121.779C171.981 121.837 171.668 121.895 171.352 121.96C167.143 122.762 163.007 123.904 158.984 125.376C158.671 125.485 158.355 125.6 158.046 125.717C148.391 129.366 139.498 134.774 131.818 141.667C128.765 144.413 125.925 147.387 123.323 150.563C119.73 154.95 116.184 159.992 111.488 162.852C111.002 163.156 110.497 163.429 109.977 163.671L82.9293 152.46C82.8806 152.404 82.8291 152.353 82.7801 152.297L81.6797 151.899C81.8024 151.726 81.9335 151.549 82.0562 151.375C82.127 151.275 82.2038 151.176 82.2746 151.076C82.3237 151.009 82.3731 150.943 82.4136 150.88C82.4298 150.858 82.4464 150.836 82.4601 150.82C82.5006 150.757 82.5449 150.703 82.5828 150.647C83.3125 149.656 84.0504 148.668 84.7965 147.683C84.7991 147.677 84.7991 147.677 84.8077 147.673C90.5121 140.187 96.892 133.11 104.144 127.226C104.362 127.049 104.583 126.866 104.813 126.694C108.097 124.06 111.591 121.699 115.259 119.633C117.272 118.509 119.34 117.487 121.456 116.571C126.927 114.216 132.735 112.736 138.667 112.185C150.493 111.088 162.538 113.782 171.607 121.205C171.839 121.395 172.065 121.583 172.295 121.779Z" fill="#F0F0F0"/>
<path d="M172.092 122.097C157.669 119.214 142.229 120.917 128.866 127.112C125.977 128.451 123.163 130.061 120.82 132.24C118.477 134.421 116.981 137.05 116.038 140.087C115.175 142.864 114.615 145.804 113.093 148.323C111.488 150.978 108.842 152.598 105.83 153.195C102.144 153.927 98.4154 153.291 94.7905 152.543C90.7656 151.712 86.5983 150.786 82.5208 151.823C82.0267 151.949 81.8604 151.175 82.3537 151.05C89.4479 149.245 96.3498 153.102 103.459 152.698C106.776 152.51 110.056 151.322 112.023 148.515C113.743 146.061 114.324 143.03 115.172 140.211C116.063 137.251 117.393 134.602 119.563 132.365C121.782 130.076 124.539 128.353 127.381 126.946C133.791 123.772 140.829 121.727 147.897 120.701C156.022 119.522 164.288 119.739 172.339 121.345C172.837 121.445 172.587 122.196 172.092 122.097Z" fill="white"/>
<path d="M133.102 124.869C132.374 122.461 132.526 119.873 133.532 117.567C134.537 115.261 136.33 113.388 138.59 112.281C139.048 112.058 139.416 112.759 138.957 112.982C136.85 114.009 135.18 115.754 134.249 117.904C133.317 120.053 133.184 122.464 133.876 124.702C134.025 125.189 133.25 125.353 133.102 124.869Z" fill="white"/>
<path d="M116.289 138.621C120.802 141.091 126.081 141.77 131.073 140.523C131.567 140.399 131.734 141.173 131.24 141.296C126.043 142.584 120.551 141.866 115.86 139.286C115.413 139.04 115.845 138.377 116.289 138.621Z" fill="white"/>
<path d="M155.747 120.534C155.835 121.524 156.167 122.477 156.714 123.308C157.261 124.138 158.006 124.82 158.881 125.291C159.331 125.532 158.899 126.195 158.452 125.956C157.487 125.43 156.666 124.677 156.059 123.761C155.453 122.845 155.08 121.794 154.973 120.701C154.955 120.599 154.976 120.493 155.032 120.406C155.088 120.319 155.176 120.256 155.277 120.231C155.379 120.209 155.486 120.229 155.574 120.286C155.662 120.343 155.725 120.432 155.747 120.534Z" fill="white"/>
<path d="M120.771 140.275C116.983 121.973 112.248 115.871 112.248 115.871L110.439 114.469L108.264 112.781L108.275 112.564L107.759 112.388L107.638 112.294L107.439 112.142L107.407 112.176L107.34 112.246L97.4961 108.902L85.008 104.664L79.2252 97.1525C78.2834 95.9292 77.0709 94.9405 75.6827 94.2638C74.2945 93.5872 72.7683 93.241 71.2238 93.2525L52.7555 93.389C50.2583 93.4075 47.8584 94.3587 46.0276 96.0558L33.8886 107.307L14.9738 116.335L14.9419 116.303L14.7432 116.444L11.8207 117.841L11.9413 118.468L10.1325 119.772C10.1325 119.772 5.39756 125.45 1.60962 142.48C0.64601 146.813 0.171686 156.109 0.000481123 167.563C-0.00811851 168.142 0.0986419 168.718 0.314552 169.256C0.530462 169.793 0.851216 170.283 1.25816 170.696C1.66511 171.109 2.15013 171.437 2.68502 171.66C3.21992 171.884 3.79401 172 4.37392 172H105.402L118.011 172C118.591 172 119.165 171.884 119.699 171.661C120.234 171.437 120.718 171.11 121.125 170.697C121.532 170.285 121.853 169.796 122.069 169.259C122.286 168.721 122.393 168.147 122.385 167.567C122.218 155.103 121.744 144.974 120.771 140.275Z" fill="#0D5A50"/>
<path d="M133.734 15.9609C129.804 15.9609 126.034 17.5212 123.255 20.2986C120.475 23.0759 118.914 26.8428 118.914 30.7706C118.914 34.6983 120.475 38.4652 123.255 41.2425C126.034 44.0199 129.804 45.5802 133.734 45.5802H244.181C248.111 45.5802 251.881 44.0199 254.66 41.2425C257.439 38.4652 259.001 34.6983 259.001 30.7706C259.001 26.8428 257.439 23.0759 254.66 20.2986C251.881 17.5212 248.111 15.9609 244.181 15.9609H133.734Z" fill="#E5E5E5"/>
<path d="M133.733 18.958C130.598 18.958 127.591 20.2025 125.374 22.4178C123.158 24.6331 121.912 27.6376 121.912 30.7705C121.912 33.9033 123.158 36.9078 125.374 39.1231C127.591 41.3384 130.598 42.5829 133.733 42.5829H244.179C247.314 42.5829 250.321 41.3384 252.538 39.1231C254.755 36.9078 256 33.9033 256 30.7705C256 27.6376 254.755 24.6331 252.538 22.4178C250.321 20.2025 247.314 18.958 244.179 18.958H133.733Z" fill="white"/>
<path d="M64.8907 86.3193C78.2534 86.3193 89.086 75.4945 89.086 62.1414C89.086 48.7882 78.2534 37.9634 64.8907 37.9634C51.5279 37.9634 40.6953 48.7882 40.6953 62.1414C40.6953 75.4945 51.5279 86.3193 64.8907 86.3193Z" fill="#9E616A"/>
<path d="M58.6999 85.1355C58.5965 84.9081 58.4934 84.6799 58.3906 84.4509C58.4302 84.4522 58.4695 84.4579 58.5091 84.4589L58.6999 85.1355Z" fill="#2F2E41"/>
<path d="M40.0224 39.0629C41.2462 38.0874 42.6764 37.1898 44.241 37.2403C45.8055 37.2907 47.3921 38.7028 47.068 40.2331C49.9418 35.1485 54.516 31.2378 59.9878 29.1875C65.4595 27.1372 71.4791 27.0783 76.99 29.0212C80.8786 30.3922 84.692 33.1349 85.5853 37.1576C85.8146 38.1903 85.8638 39.3225 86.509 40.1611C87.3226 41.2183 88.8791 41.4575 90.1608 41.0856C90.1736 41.0818 90.1864 41.0781 90.1992 41.0743C90.4157 41.0004 90.6494 40.9931 90.8701 41.0534C91.0908 41.1137 91.2883 41.2388 91.4371 41.4125C91.5859 41.5862 91.6791 41.8005 91.7046 42.0277C91.7302 42.2549 91.687 42.4845 91.5805 42.6869L90.4802 44.7374C91.8672 45.0464 93.3083 45.0157 94.6809 44.6482C94.9089 44.5884 95.1498 44.6006 95.3707 44.6831C95.5914 44.7656 95.7813 44.9143 95.9142 45.1089C96.047 45.3034 96.1164 45.5343 96.1128 45.7698C96.1091 46.0054 96.0326 46.234 95.8938 46.4244C92.2658 51.4019 86.2045 54.6161 80.0192 54.5783C75.623 54.5515 71.1815 53.0375 66.9031 54.0477C65.2479 54.4385 63.7013 55.1947 62.3767 56.2607C61.0521 57.3267 59.9832 58.6756 59.2483 60.2083C58.5134 61.741 58.1312 63.4186 58.1298 65.1181C58.1284 66.8177 58.5078 68.496 59.2401 70.0299C57.9258 68.5933 55.385 68.9334 54.0405 70.3419C52.696 71.7505 52.3479 73.8529 52.4834 75.7947C52.6906 78.7647 53.8551 81.5632 55.0827 84.287C44.7902 83.9632 35.0553 76.7484 31.7785 66.9902C28.488 57.1911 31.9366 45.5086 40.0224 39.0629Z" fill="#8B8B8B"/>
<path opacity="0.2" d="M23.8145 134.75L30.6007 171.646L34.6726 172L23.8145 134.75Z" fill="black"/>
<path opacity="0.2" d="M98.5671 131.967L91.7809 171.619L87.709 172L98.5671 131.967Z" fill="black"/>
<path d="M45.8106 26.6456C44.5094 27.1885 43.1517 26.5935 42.5823 25.2309C42.0042 23.8474 42.5441 22.443 43.8662 21.8913C45.1883 21.3397 46.5218 21.9361 47.1093 23.3419C47.6879 24.7266 47.1538 26.0851 45.8106 26.6456ZM43.3181 19.1682L42.2835 19.5999C42.0251 19.7065 41.736 19.7122 41.4735 19.616C41.211 19.5198 40.9942 19.3287 40.866 19.0804L40.8148 18.9804C39.7017 16.9742 39.5742 14.536 40.438 11.7373C41.2382 9.22668 41.5706 7.461 40.9022 5.86139C40.1294 4.01193 38.4791 3.43259 36.3746 4.27184C35.5584 4.61241 35.2987 4.60698 34.6564 5.24371C34.5167 5.3839 34.3501 5.49453 34.1667 5.56902C33.9833 5.64351 33.7867 5.68032 33.5887 5.67726C33.3974 5.67501 33.2084 5.63426 33.0331 5.55746C32.8578 5.48066 32.6998 5.36937 32.5685 5.23023C32.3155 4.96208 32.1738 4.60799 32.1719 4.23947C32.17 3.87094 32.3082 3.51544 32.5585 3.24475C33.6381 2.1154 34.9403 1.22195 36.3828 0.62076C40.9044 -1.26594 43.1805 1.5195 44.2222 4.0122C45.241 6.45035 44.6679 8.71255 43.747 11.6423C42.9754 14.0768 43.0203 15.8807 43.8969 17.6743C43.9602 17.8099 43.9954 17.9569 44.0004 18.1064C44.0054 18.256 43.9801 18.405 43.9261 18.5445C43.872 18.684 43.7903 18.8112 43.6858 18.9184C43.5813 19.0256 43.4563 19.1105 43.3181 19.1682Z" fill="#0DB38B"/>
<path d="M158.129 37.8337H136.154C136.084 37.8342 136.015 37.8209 135.95 37.7945C135.886 37.7681 135.827 37.7292 135.777 37.6801C135.728 37.6309 135.689 37.5725 135.662 37.508C135.635 37.4436 135.621 37.3746 135.621 37.3048C135.621 37.235 135.635 37.166 135.662 37.1016C135.689 37.0372 135.728 36.9787 135.777 36.9295C135.827 36.8804 135.886 36.8415 135.95 36.8151C136.015 36.7887 136.084 36.7754 136.154 36.7759H158.129C158.268 36.7768 158.402 36.833 158.501 36.9321C158.599 37.0312 158.654 37.1651 158.654 37.3048C158.654 37.4445 158.599 37.5784 158.501 37.6775C158.402 37.7766 158.268 37.8328 158.129 37.8337Z" fill="#48BFBB"/>
<path d="M186.006 38.01H164.031C163.961 38.0105 163.892 37.9971 163.827 37.9708C163.763 37.9444 163.704 37.9055 163.654 37.8564C163.605 37.8072 163.566 37.7487 163.539 37.6843C163.512 37.6199 163.498 37.5508 163.498 37.4811C163.498 37.4113 163.512 37.3422 163.539 37.2778C163.566 37.2134 163.605 37.155 163.654 37.1058C163.704 37.0566 163.763 37.0178 163.827 36.9914C163.892 36.965 163.961 36.9517 164.031 36.9522H186.006C186.075 36.9517 186.145 36.965 186.209 36.9914C186.274 37.0178 186.333 37.0566 186.382 37.1058C186.432 37.155 186.471 37.2134 186.498 37.2778C186.525 37.3422 186.539 37.4113 186.539 37.4811C186.539 37.5508 186.525 37.6199 186.498 37.6843C186.471 37.7487 186.432 37.8072 186.382 37.8564C186.333 37.9055 186.274 37.9444 186.209 37.9708C186.145 37.9971 186.075 38.0105 186.006 38.01Z" fill="#48BFBB"/>
<path d="M213.881 38.1863H191.907C191.767 38.1853 191.633 38.1292 191.535 38.0301C191.436 37.931 191.381 37.797 191.381 37.6573C191.381 37.5177 191.436 37.3837 191.535 37.2846C191.633 37.1855 191.767 37.1294 191.907 37.1284H213.881C213.951 37.128 214.02 37.1413 214.085 37.1677C214.15 37.194 214.208 37.2329 214.258 37.2821C214.307 37.3312 214.347 37.3897 214.374 37.4541C214.4 37.5185 214.414 37.5876 214.414 37.6573C214.414 37.7271 214.4 37.7962 214.374 37.8606C214.347 37.925 214.307 37.9835 214.258 38.0326C214.208 38.0818 214.15 38.1207 214.085 38.147C214.02 38.1734 213.951 38.1867 213.881 38.1863Z" fill="#48BFBB"/>
<path d="M241.758 38.3628H219.784C219.644 38.3618 219.51 38.3057 219.412 38.2066C219.313 38.1075 219.258 37.9735 219.258 37.8338C219.258 37.6942 219.313 37.5602 219.412 37.4611C219.51 37.362 219.644 37.3059 219.784 37.3049H241.758C241.898 37.3059 242.032 37.362 242.13 37.4611C242.229 37.5602 242.284 37.6942 242.284 37.8338C242.284 37.9735 242.229 38.1075 242.13 38.2066C242.032 38.3057 241.898 38.3618 241.758 38.3628Z" fill="#48BFBB"/>
<path d="M147.094 32.9662C149.35 32.9662 151.178 31.1389 151.178 28.8849C151.178 26.6309 149.35 24.8037 147.094 24.8037C144.838 24.8037 143.01 26.6309 143.01 28.8849C143.01 31.1389 144.838 32.9662 147.094 32.9662Z" fill="#0DB38B"/>
<path d="M175.139 32.9662C177.394 32.9662 179.223 31.1389 179.223 28.8849C179.223 26.6309 177.394 24.8037 175.139 24.8037C172.883 24.8037 171.055 26.6309 171.055 28.8849C171.055 31.1389 172.883 32.9662 175.139 32.9662Z" fill="#0DB38B"/>
<path d="M203.184 32.9662C205.439 32.9662 207.268 31.1389 207.268 28.8849C207.268 26.6309 205.439 24.8037 203.184 24.8037C200.928 24.8037 199.1 26.6309 199.1 28.8849C199.1 31.1389 200.928 32.9662 203.184 32.9662Z" fill="#0DB38B"/>
<path d="M231.227 32.9662C233.482 32.9662 235.311 31.1389 235.311 28.8849C235.311 26.6309 233.482 24.8037 231.227 24.8037C228.971 24.8037 227.143 26.6309 227.143 28.8849C227.143 31.1389 228.971 32.9662 231.227 32.9662Z" fill="#0DB38B"/>
</g>
<defs>
<clipPath id="clip0_66_738">
<rect width="259" height="172" fill="white"/>
</clipPath>
</defs>
</svg>
