<svg width="25" height="24" viewBox="0 0 25 24" fill="none" xmlns="http://www.w3.org/2000/svg">
<path d="M6.99671 10L6.99623 8C6.99545 4.69 7.99481 2 12.9948 2C17.9948 2 18.9954 4.69 18.9962 8L18.9967 10M12.9987 18.5C13.6618 18.5 14.2976 18.2366 14.7663 17.7678C15.235 17.2989 15.4983 16.663 15.4981 16C15.498 15.337 15.2344 14.7011 14.7655 14.2322C14.2965 13.7634 13.6606 13.5 12.9975 13.5C12.3345 13.5 11.6987 13.7634 11.2299 14.2322C10.7612 14.7011 10.498 15.337 10.4981 16C10.4983 16.663 10.7618 17.2989 11.2308 17.7678C11.6997 18.2366 12.3357 18.5 12.9987 18.5Z" stroke="#D3D3D3" stroke-width="1.5" stroke-linecap="round" stroke-linejoin="round"/>
<path d="M17.9995 22H7.99954C3.99954 22 2.99931 21 2.99836 17L2.99789 15C2.99694 11 3.9967 10 7.9967 10H17.9967C21.9967 10 22.9969 11 22.9979 15L22.9984 17C22.9993 21 21.9995 22 17.9995 22Z" stroke="#D3D3D3" stroke-width="1.5" stroke-linecap="round" stroke-linejoin="round"/>
</svg>
